<?xml version="1.0" encoding="utf-8"?>
<!-- Generator: Adobe Illustrator 27.2.0, SVG Export Plug-In . SVG Version: 6.00 Build 0)  -->
<svg version="1.1" id="Layer_1" xmlns="http://www.w3.org/2000/svg" xmlns:xlink="http://www.w3.org/1999/xlink" x="0px" y="0px"
	 viewBox="0 0 50 66.7" style="enable-background:new 0 0 50 66.7;" xml:space="preserve">
<path d="M8.3,8.3v23.1c0.7-0.1,1.4-0.2,2.1-0.2h2.1v-4.2V8.3c0-1.1-0.9-2.1-2.1-2.1S8.3,7.2,8.3,8.3z M10.4,37.5
	c-2.3,0-4.2,1.9-4.2,4.2l0,0v3.1c0,8.6,7,15.6,15.6,15.6h6.2c6.8,0,12.6-4.4,14.8-10.5C42.5,50,42.1,50,41.7,50
	c-2.6,0-4.9-1.2-6.5-3.1c-1.2,0.6-2.5,1-3.9,1c-2,0-3.8-0.7-5.2-1.8c-1.4,1.1-3.2,1.8-5.2,1.8h-5.2c-1.7,0-3.1-1.4-3.1-3.1
	s1.4-3.1,3.1-3.1h5.2c1.1,0,2.1-0.9,2.1-2.1s-0.9-2.1-2.1-2.1h-5.2H10.4z M0,41.7L0,41.7c0-2.3,0.8-4.5,2.1-6.2V8.3
	C2.1,3.7,5.8,0,10.4,0s8.3,3.7,8.3,8.3V19c0.7-0.2,1.4-0.3,2.1-0.3c3.3,0,6.1,1.9,7.5,4.7c0.9-0.3,1.9-0.5,2.9-0.5
	c2.6,0,4.9,1.2,6.5,3.1c1.2-0.6,2.5-1,3.9-1c4.6,0,8.3,3.7,8.3,8.3v8.3v3.1c0,12.1-9.8,21.9-21.9,21.9h-6.2C9.8,66.7,0,56.9,0,44.8
	V41.7z M43.8,33.3c0-1.1-0.9-2.1-2.1-2.1s-2.1,0.9-2.1,2.1v6.2v2.1c0,1.1,0.9,2.1,2.1,2.1s2.1-0.9,2.1-2.1V33.3z M20.8,31.2
	c0.7,0,1.4,0.1,2.1,0.3v-0.3v-4.2c0-1.1-0.9-2.1-2.1-2.1s-2.1,0.9-2.1,2.1v4.2H20.8z M29.2,34.4v5.2c0,1.1,0.9,2.1,2.1,2.1
	c1.1,0,2.1-0.9,2.1-2.1v-6.2v-2.1c0-1.1-0.9-2.1-2.1-2.1c-1.1,0-2.1,0.9-2.1,2.1V34.4z"/>
</svg>
