<?xml version="1.0" encoding="utf-8"?>
<!-- Generator: Adobe Illustrator 27.2.0, SVG Export Plug-In . SVG Version: 6.00 Build 0)  -->
<svg version="1.1" id="Layer_1" xmlns="http://www.w3.org/2000/svg" xmlns:xlink="http://www.w3.org/1999/xlink" x="0px" y="0px"
	 viewBox="0 0 50 50" style="enable-background:new 0 0 50 50;" xml:space="preserve">
<path d="M18.5,2.5l0.6,2.3L18.5,2.5z M23.3,5.2l2.3-0.6l0,0L23.3,5.2L23.3,5.2z M15.8,7.3l-2.3,0.6l0,0L15.8,7.3z M20.3,24.4
	l-2.2,0.9c0.5,1.1,1.7,1.7,2.9,1.3c1.2-0.4,1.8-1.6,1.5-2.8L20.3,24.4L20.3,24.4z M15.3,12.5l-2.2,0.9L15.3,12.5z M10.2,10.5
	l0.9,2.2C11.1,12.6,10.2,10.5,10.2,10.5z M8.1,15.6L6,16.5l0,0L8.1,15.6z M8.6,29.7l1.4-1.8L8.6,29.7L8.6,29.7z M3.2,30.4L5,31.8
	l0,0L3.2,30.4z M3.8,35.9l-1.4,1.9l0,0L3.8,35.9L3.8,35.9z M12.8,42.9l-1.4,1.8L12.8,42.9z M42.1,38.1l2.3,0.6L42.1,38.1z
	 M47.5,16.6l2.3,0.6l0,0L47.5,16.6z M44.7,11.8l0.6-2.3L44.7,11.8z M39.9,14.7l2.3,0.6l0,0L39.9,14.7z M37.4,24.9l-2.3-0.6l0,0
	L37.4,24.9z M37.1,24.8l2.3,0.4l0,0L37.1,24.8L37.1,24.8z M39.8,10.1l2.3,0.4l0,0L39.8,10.1z M36.6,5.5l-0.4,2.3L36.6,5.5z
	 M32.1,8.7l-2.3-0.4l0,0L32.1,8.7z M29.2,24.7l-2.3-0.4l0,0L29.2,24.7z M28.5,24.7l2.3-0.6l0,0L28.5,24.7z M29.7,47.7l0-2.3
	L29.7,47.7z M14.4,34.2l1.4-1.9L14.4,34.2L14.4,34.2z M19.1,4.7C20,4.5,20.8,5,21,5.8l4.5-1.2c-0.9-3.3-4.3-5.3-7.6-4.4L19.1,4.7
	L19.1,4.7z M18,6.6c-0.2-0.8,0.3-1.7,1.1-1.9l-1.2-4.5c-3.3,0.9-5.3,4.3-4.4,7.6L18,6.6L18,6.6z M22.6,23.8L18,6.6l-4.5,1.2L18,25
	L22.6,23.8z M13.2,13.5l5,11.8l4.3-1.8l-5-11.8L13.2,13.5L13.2,13.5z M11.1,12.6c0.8-0.3,1.7,0,2.1,0.8l4.3-1.8
	c-1.3-3.2-5-4.7-8.2-3.3L11.1,12.6L11.1,12.6z M10.3,14.7c-0.3-0.8,0-1.7,0.8-2.1L9.3,8.3c-3.2,1.3-4.7,5-3.3,8.2L10.3,14.7
	L10.3,14.7z M17.7,32.3l-7.4-17.7L6,16.5l7.4,17.7L17.7,32.3L17.7,32.3z M7.2,31.6l5.7,4.4l2.9-3.7l-5.7-4.4L7.2,31.6z M5,31.9
	c0.5-0.7,1.5-0.8,2.2-0.3l2.9-3.7c-2.7-2.1-6.7-1.6-8.8,1.1L5,31.9L5,31.9z M5.3,34c-0.7-0.5-0.8-1.5-0.3-2.2L1.3,29
	c-2.1,2.7-1.6,6.7,1.1,8.8L5.3,34L5.3,34z M14.3,41l-9-7l-2.9,3.7l9,7L14.3,41L14.3,41z M26.7,45.3c-4.5,0-8.9-1.5-12.5-4.3
	l-2.9,3.7c4.4,3.4,9.8,5.3,15.4,5.3V45.3z M29.7,45.3h-2.9V50h2.9V45.3z M30,45.3c-0.1,0-0.1,0-0.2,0L29.6,50c0.1,0,0.2,0,0.3,0
	V45.3z M39.9,37.6c-1.1,4.5-5.2,7.7-9.9,7.7V50c6.8,0,12.8-4.7,14.5-11.3L39.9,37.6L39.9,37.6z M45.3,16l-5.4,21.6l4.6,1.1l5.4-21.6
	L45.3,16z M44.1,14.1c0.8,0.2,1.3,1.1,1.1,1.9l4.6,1.1c0.8-3.3-1.2-6.7-4.6-7.6L44.1,14.1z M42.2,15.2c0.2-0.8,1.1-1.3,1.9-1.1
	l1.1-4.6c-3.3-0.8-6.7,1.2-7.6,4.6L42.2,15.2z M39.7,25.5l2.6-10.2l-4.6-1.1l-2.6,10.2L39.7,25.5L39.7,25.5z M37.3,27.3
	c1.1,0,2.1-0.8,2.4-1.9l-4.6-1.1c0.2-1,1.1-1.7,2.1-1.7V27.3z M34.8,24.4c-0.3,1.5,0.9,2.9,2.4,2.9v-4.7c1.4,0,2.4,1.2,2.2,2.6
	L34.8,24.4L34.8,24.4z M37.5,9.6l-2.6,14.8l4.6,0.8l2.6-14.8L37.5,9.6L37.5,9.6z M36.2,7.8c0.8,0.1,1.4,1,1.3,1.8l4.6,0.8
	c0.6-3.4-1.7-6.6-5.1-7.2L36.2,7.8L36.2,7.8z M34.4,9.1c0.1-0.8,1-1.4,1.8-1.3L37,3.2c-3.4-0.6-6.6,1.7-7.2,5.1L34.4,9.1L34.4,9.1z
	 M31.6,25.1l2.8-16l-4.6-0.8l-2.8,16L31.6,25.1L31.6,25.1z M28.9,27.3c1.3,0,2.5-1,2.7-2.3l-4.6-0.8c0.2-0.9,1-1.6,1.9-1.6
	L28.9,27.3L28.9,27.3z M26.2,25.3c0.3,1.2,1.4,2,2.7,2v-4.7c0.9,0,1.7,0.6,1.9,1.4L26.2,25.3L26.2,25.3z M21,5.8l5.2,19.5l4.5-1.2
	L25.6,4.6L21,5.8z M32,47.7c0,1.3-1.1,2.4-2.4,2.3l0.1-4.7c-1.3,0-2.4,1-2.4,2.3H32z M29.7,50c1.3,0,2.3-1.1,2.3-2.3h-4.7
	c0-1.3,1-2.3,2.3-2.3V50z M13.4,34.2c-0.6-1.5,1.1-2.8,2.4-1.8L12.9,36c2.5,2,6-0.7,4.8-3.7L13.4,34.2z"/>
</svg>
