<?xml version="1.0" encoding="utf-8"?>
<!-- Generator: Adobe Illustrator 27.2.0, SVG Export Plug-In . SVG Version: 6.00 Build 0)  -->
<svg version="1.1" id="Layer_1" xmlns="http://www.w3.org/2000/svg" xmlns:xlink="http://www.w3.org/1999/xlink" x="0px" y="0px"
	 viewBox="0 0 50 57.1" style="enable-background:new 0 0 50 57.1;" xml:space="preserve">
<path d="M17.9,7.1c0-1,0.8-1.8,1.8-1.8c1,0,1.8,0.8,1.8,1.8v15.2c0,1.1,0.7,2.2,1.8,2.5c1.1,0.4,2.3,0,3-0.9
	c0.3-0.4,0.8-0.7,1.4-0.7c1,0,1.8,0.8,1.8,1.8v0.9c0,1.1,0.7,2.2,1.8,2.5s2.3,0,3-0.9c0.3-0.4,0.8-0.7,1.4-0.7c1,0,1.8,0.8,1.8,1.8
	c0,1,0.6,1.9,1.5,2.4c0.9,0.5,2,0.4,2.8-0.3c0.3-0.2,0.7-0.4,1.1-0.4c1,0,1.8,0.8,1.8,1.8v10.7v0.9c0,4.4-3.6,8-8,8h-6.2h-6.7h-0.1
	c-4.2,0-8.1-2.1-10.4-5.6L5.7,34.9c-0.5-0.8-0.3-1.9,0.5-2.5c0.8-0.5,1.9-0.3,2.5,0.5l4.3,6.5c0.7,1,1.9,1.4,3,1.1
	c1.1-0.3,1.9-1.4,1.9-2.6v-2.2L17.9,7.1L17.9,7.1z M19.6,0c-3.9,0-7.1,3.2-7.1,7.1v22.1C10.2,26.6,6.2,26,3.2,28
	c-3.3,2.2-4.2,6.6-2,9.9l7.5,11.3c3.3,5,8.9,7.9,14.9,7.9h0.1h6.7h6.2c7.4,0,13.4-6,13.4-13.4v-0.9V32.1c0-3.9-3.2-7.1-7.1-7.1
	c-0.3,0-0.6,0-0.9,0.1c-1.2-2.2-3.5-3.6-6.2-3.6c-0.6,0-1.2,0.1-1.7,0.2c-1.2-2.3-3.6-3.8-6.3-3.8c-0.3,0-0.6,0-0.9,0.1V7.1
	C26.8,3.2,23.6,0,19.6,0z M25,33.9c0-1-0.8-1.8-1.8-1.8c-1,0-1.8,0.8-1.8,1.8v10.7c0,1,0.8,1.8,1.8,1.8c1,0,1.8-0.8,1.8-1.8V33.9z
	 M30.4,32.1c-1,0-1.8,0.8-1.8,1.8v10.7c0,1,0.8,1.8,1.8,1.8s1.8-0.8,1.8-1.8V33.9C32.1,32.9,31.3,32.1,30.4,32.1z M39.3,33.9
	c0-1-0.8-1.8-1.8-1.8s-1.8,0.8-1.8,1.8v10.7c0,1,0.8,1.8,1.8,1.8s1.8-0.8,1.8-1.8V33.9z"/>
</svg>
