<?xml version="1.0" encoding="utf-8"?>
<!-- Generator: Adobe Illustrator 27.2.0, SVG Export Plug-In . SVG Version: 6.00 Build 0)  -->
<svg version="1.1" id="Layer_1" xmlns="http://www.w3.org/2000/svg" xmlns:xlink="http://www.w3.org/1999/xlink" x="0px" y="0px"
	 viewBox="0 0 50 56.7" style="enable-background:new 0 0 50 56.7;" xml:space="preserve">
<path d="M40.9,8.5c-2.8-2.8-7.3-2.8-10.1,0L10,29.4c-4.8,4.8-4.8,12.5,0,17.3s12.5,4.8,17.3,0l17.3-17.3c1.2-1.2,3.3-1.2,4.5,0
	s1.2,3.3,0,4.5L31.8,51.2c-7.3,7.3-19.1,7.3-26.3,0s-7.3-19.1,0-26.3L26.4,3.9c5.3-5.3,13.8-5.3,19.1,0s5.3,13.8,0,19.1l-20,20
	c-3.3,3.3-8.5,3.3-11.8,0s-3.3-8.5,0-11.8L30,14.9c1.2-1.2,3.3-1.2,4.5,0s1.2,3.3,0,4.5L18.1,35.7c-0.8,0.8-0.8,2,0,2.8
	c0.8,0.8,2,0.8,2.8,0l20-20C43.7,15.7,43.7,11.2,40.9,8.5L40.9,8.5z"/>
</svg>
