<?xml version="1.0" encoding="utf-8"?>
<!-- Generator: Adobe Illustrator 27.2.0, SVG Export Plug-In . SVG Version: 6.00 Build 0)  -->
<svg version="1.1" id="Layer_1" xmlns="http://www.w3.org/2000/svg" xmlns:xlink="http://www.w3.org/1999/xlink" x="0px" y="0px"
	 viewBox="0 0 50 27.8" style="enable-background:new 0 0 50 27.8;" xml:space="preserve">
<path d="M26.9,7.2l12,10.3c-0.1,0.1-0.3,0.2-0.4,0.3c-1.6,1.1-3.5,1.8-5.1,1.8c-1.7,0-3.5-0.7-5.1-1.8c-1.9-1.3-4.5-1.3-6.4,0
	c-1.5,1-3.3,1.8-5.1,1.8c-0.9,0-1.8-0.2-2.8-0.5C14.2,8.4,22.8,0,33.3,0h5.6c1.5,0,2.8,1.2,2.8,2.8s-1.2,2.8-2.8,2.8h-5.6
	C31,5.6,28.8,6.1,26.9,7.2z M13.9,5.6c0,3.1-2.5,5.6-5.6,5.6S2.8,8.6,2.8,5.6S5.3,0,8.3,0S13.9,2.5,13.9,5.6z M26.6,20
	c2,1.3,4.3,2.3,6.7,2.3c2.3,0,4.8-0.9,6.7-2.3l0,0c1-0.7,2.4-0.7,3.4,0.1c1.3,1,2.8,1.8,4.4,2.2c1.5,0.3,2.4,1.8,2.1,3.3
	s-1.8,2.4-3.3,2.1c-2.1-0.5-3.9-1.4-5.1-2.2c-2.5,1.4-5.3,2.2-8.2,2.2c-2.8,0-5.3-0.9-7-1.6c-0.5-0.2-1-0.5-1.4-0.7
	c-0.4,0.2-0.8,0.4-1.4,0.7c-1.7,0.8-4.2,1.6-7,1.6c-2.9,0-5.7-0.9-8.2-2.2c-1.2,0.7-2.9,1.7-5.1,2.2c-1.5,0.3-3-0.6-3.3-2.1
	s0.6-3,2.1-3.3c1.6-0.4,3.1-1.2,4.4-2.2c1-0.8,2.4-0.9,3.4-0.1l0,0c1.9,1.3,4.4,2.3,6.7,2.3c2.4,0,4.8-0.9,6.7-2.3
	C24.4,19.3,25.6,19.3,26.6,20z"/>
</svg>
