<?xml version="1.0" encoding="utf-8"?>
<!-- Generator: Adobe Illustrator 27.2.0, SVG Export Plug-In . SVG Version: 6.00 Build 0)  -->
<svg version="1.1" id="Layer_1" xmlns="http://www.w3.org/2000/svg" xmlns:xlink="http://www.w3.org/1999/xlink" x="0px" y="0px"
	 viewBox="0 0 50 57.1" style="enable-background:new 0 0 50 57.1;" xml:space="preserve">
<path d="M33.9,14.3c0-4.9-4-8.9-8.9-8.9s-8.9,4-8.9,8.9s4,8.9,8.9,8.9S33.9,19.2,33.9,14.3z M10.7,14.3C10.7,6.4,17.1,0,25,0
	s14.3,6.4,14.3,14.3S32.9,28.6,25,28.6S10.7,22.2,10.7,14.3z M5.5,51.8h39c-1-7.1-7.1-12.5-14.4-12.5H19.9
	C12.6,39.3,6.5,44.7,5.5,51.8z M0,53.8c0-11,8.9-19.9,19.9-19.9h10.2c11,0,19.9,8.9,19.9,19.9c0,1.8-1.5,3.3-3.3,3.3H3.3
	C1.5,57.1,0,55.7,0,53.8z"/>
</svg>
